<svg t="1668132210926" class="icon" viewBox="0 0 1024 1024" version="1.1" xmlns="http://www.w3.org/2000/svg" p-id="5561" width="128" height="128"><path d="M505.728 921.728c-218.112 0-395.52-177.408-395.52-395.52 0-168.832 107.264-319.232 266.88-374.016 13.312-4.608 27.904 2.56 32.512 15.872 4.608 13.312-2.56 27.904-15.872 32.512C254.72 248.32 161.408 379.136 161.408 526.208c0 189.824 154.496 344.32 344.32 344.32 141.44 0 270.464-88.576 321.408-220.544a25.728 25.728 0 0 1 33.152-14.72 25.728 25.728 0 0 1 14.72 33.152C816.384 819.84 668.16 921.728 505.728 921.728z" p-id="5562"></path><path d="M505.728 130.688c-14.08 0-25.6 11.52-25.6 25.6v370.304c0 6.784 2.688 13.312 7.552 18.176 4.864 4.864 11.264 7.424 18.048 7.424l369.92-0.512c14.08 0 25.6-11.52 25.6-25.6-0.128-217.984-177.536-395.392-395.52-395.392z" p-id="5563"></path></svg>