<svg t="1668132618101" class="icon" viewBox="0 0 1024 1024" version="1.1" xmlns="http://www.w3.org/2000/svg" p-id="12931" width="128" height="128"><path d="M463.00625 971.121875c-226.2375 0-410.278125-183.853125-410.278125-409.85625 0-226.21875 184.040625-410.278125 410.278125-410.278125 14.34375 0 28.246875 0.80625 42.178125 2.090625 19.66875 1.81875 34.115625 19.228125 32.296875 38.878125-1.81875 19.65-19.33125 34.134375-38.859375 32.315625-11.765625-1.078125-23.503125-1.81875-35.615625-1.81875-186.815625 0-338.803125 151.9875-338.803125 338.803125 0 186.571875 151.9875 338.38125 338.803125 338.38125 186.590625 0 338.4-151.809375 338.4-338.38125 0-12.140625-0.7125-24.290625-1.8-36.046875-1.78125-19.65 12.703125-37.059375 32.353125-38.840625 19.790625-1.921875 37.059375 12.740625 38.840625 32.353125 1.25625 13.921875 2.071875 28.2375 2.071875 42.54375 0.009375 226.003125-183.8625 409.85625-409.865625 409.85625z" p-id="12932"></path><path d="M501.8375 54.453125c-21.478125 0-38.8875 17.41875-38.8875 38.8875v428.765625c0 21.478125 17.41875 38.8875 38.8875 38.8875h428.746875c21.478125 0 38.8875-17.41875 38.8875-38.8875 0-257.86875-209.784375-467.653125-467.634375-467.653125z" p-id="12933"></path></svg>