<svg t="1668131764702" class="icon" viewBox="0 0 1024 1024" version="1.1" xmlns="http://www.w3.org/2000/svg" p-id="10336" width="128" height="128"><path d="M277.761026 775.59583c0 16.012831-13.138733 29.151564-29.151563 29.151564H164.439455c-16.012831 0-29.151564-13.138733-29.151564-29.151564v-230.338412c0-16.012831 13.138733-29.151564 29.151564-29.151564H248.609463c16.012831 0 29.151564 13.138733 29.151563 29.151564v230.338412z m0 0M481.000802 775.59583c0 16.012831-13.138733 29.151564-29.151564 29.151564H368.089816c-16.012831 0-29.151564-13.138733-29.151564-29.151564V406.890136c0-16.012831 13.138733-29.151564 29.151564-29.151563h84.170008c16.012831 0 29.151564 13.138733 29.151563 29.151563v368.705694z m0 0M684.651163 775.59583c0 16.012831-13.138733 29.151564-29.151564 29.151564h-84.170008c-16.012831 0-29.151564-13.138733-29.151564-29.151564V216.789094c0-16.012831 13.138733-29.151564 29.151564-29.151564h84.170008c16.012831 0 29.151564 13.138733 29.151564 29.151564v558.806736z m0 0M887.890938 775.59583c0 16.012831-13.138733 29.151564-29.151564 29.151564h-84.170008c-16.012831 0-29.151564-13.138733-29.151563-29.151564v-303.012029c0-16.012831 13.138733-29.151564 29.151563-29.151564h84.170008c16.012831 0 29.151564 13.138733 29.151564 29.151564v303.012029z m0 0M919.095429 917.247795c0 16.012831-13.138733 29.151564-29.151564 29.151563H133.645549c-16.012831 0-29.151564-13.138733-29.151563-29.151563v-61.998396c0-16.012831 13.138733-29.151564 29.151563-29.151564h756.298316c16.012831 0 29.151564 13.138733 29.151564 29.151564v61.998396z m0 0M173.472334 446.716921c0 14.781075 11.906977 26.688051 26.688051 26.688051s26.688051-11.906977 26.688051-26.688051-11.906977-26.688051-26.688051-26.688052c-14.781075-0.410585-26.688051 11.906977-26.688051 26.688052z m0 0M381.639134 304.243785c0 14.781075 11.906977 26.688051 26.688051 26.688051s26.688051-11.906977 26.688052-26.688051-11.906977-26.688051-26.688052-26.688051-26.688051 11.906977-26.688051 26.688051z m0 0M582.004812 81.29591c0 14.781075 11.906977 26.688051 26.688051 26.688052s26.688051-11.906977 26.688051-26.688052-11.906977-26.688051-26.688051-26.688051-26.688051 11.906977-26.688051 26.688051z m0 0M781.138733 360.904571c0 14.781075 11.906977 26.688051 26.688051 26.688051s26.688051-11.906977 26.688052-26.688051-11.906977-26.688051-26.688052-26.688051c-14.781075-0.410585-26.688051 11.906977-26.688051 26.688051z m0 0" p-id="10337"></path><path d="M196.054531 438.915798L404.631917 298.906175l203.65036-239.781877 208.987972 294.800321-18.065758 12.728148-192.564555-271.807538-187.226945 220.484362-211.451483 141.651965-11.906977-18.065758z m0 0" p-id="10338"></path></svg>